<svg width="31" height="31" viewBox="0 0 31 31" fill="none" xmlns="http://www.w3.org/2000/svg">
<path d="M30.0855 14.849L16.1355 0.899C15.5775 0.341 14.8025 0 13.95 0H3.1C1.3795 0 0 1.3795 0 3.1V13.95C0 14.8025 0.341 15.5775 0.9145 16.1355L14.849 30.0855C15.4225 30.6435 16.1975 31 17.05 31C17.9025 31 18.6775 30.6435 19.2355 30.0855L19.8865 29.45C14.88 29.295 10.85 25.203 10.85 20.15C10.85 15.0195 15.0195 10.85 20.15 10.85C25.203 10.85 29.295 14.88 29.45 19.8865L30.0855 19.2355C30.659 18.6775 31 17.9025 31 17.05C31 16.182 30.6435 15.407 30.0855 14.849ZM5.425 7.75C4.1385 7.75 3.1 6.7115 3.1 5.425C3.1 4.1385 4.1385 3.1 5.425 3.1C6.7115 3.1 7.75 4.1385 7.75 5.425C7.75 6.7115 6.7115 7.75 5.425 7.75ZM20.3205 13.3455C24.1955 13.3455 27.2955 16.4455 27.2955 20.3205C27.2955 21.7 26.908 22.971 26.226 24.025L31 28.8455L28.8455 31L24.025 26.2415C22.94 26.908 21.7 27.2955 20.3205 27.2955C16.4455 27.2955 13.3455 24.1955 13.3455 20.3205C13.3455 16.4455 16.4455 13.3455 20.3205 13.3455ZM20.3205 16.4455C18.1815 16.4455 16.4455 18.1815 16.4455 20.3205C16.4455 22.4595 18.1815 24.1955 20.3205 24.1955C22.4595 24.1955 24.1955 22.475 24.1955 20.3205C24.1955 18.166 22.475 16.4455 20.3205 16.4455Z" fill="#00398E"/>
</svg>
