<svg width="26" height="25" viewBox="0 0 26 25" fill="none" xmlns="http://www.w3.org/2000/svg">
<path d="M1.95 21.0526C2.46717 21.0526 2.96316 21.2606 3.32886 21.6307C3.69455 22.0008 3.9 22.5029 3.9 23.0263C3.9 23.5498 3.69455 24.0518 3.32886 24.4219C2.96316 24.7921 2.46717 25 1.95 25C1.43283 25 0.936838 24.7921 0.571142 24.4219C0.205446 24.0518 0 23.5498 0 23.0263C0 22.5029 0.205446 22.0008 0.571142 21.6307C0.936838 21.2606 1.43283 21.0526 1.95 21.0526ZM8.45 17.1053C9.31195 17.1053 10.1386 17.4518 10.7481 18.0687C11.3576 18.6856 11.7 19.5223 11.7 20.3947C11.7 21.2672 11.3576 22.1038 10.7481 22.7207C10.1386 23.3376 9.31195 23.6842 8.45 23.6842C7.58805 23.6842 6.7614 23.3376 6.1519 22.7207C5.54241 22.1038 5.2 21.2672 5.2 20.3947C5.2 19.5223 5.54241 18.6856 6.1519 18.0687C6.7614 17.4518 7.58805 17.1053 8.45 17.1053ZM16.25 15.7895C14.703 15.7895 13.299 15.1316 12.35 14.0132C11.401 15.1316 9.997 15.7895 8.45 15.7895C5.902 15.7895 3.783 13.9342 3.341 11.5C1.391 10.7368 0 8.81579 0 6.57895C0 5.18307 0.547856 3.84437 1.52304 2.85733C2.49823 1.8703 3.82087 1.31579 5.2 1.31579C5.538 1.31579 5.85 1.35526 6.201 1.40789C7.15 0.539474 8.385 0 9.75 0C11.297 0 12.701 0.657895 13.65 1.77632C14.599 0.657895 16.003 0 17.55 0C20.098 0 22.217 1.85526 22.659 4.28947C24.609 5.05263 26 6.97368 26 9.21053C26 10.6064 25.4521 11.9451 24.477 12.9321C23.5018 13.9192 22.1791 14.4737 20.8 14.4737L19.799 14.3816C18.85 15.25 17.615 15.7895 16.25 15.7895Z" fill="#00398E"/>
</svg>
