<svg width="29" height="31" viewBox="0 0 29 31" fill="none" xmlns="http://www.w3.org/2000/svg">
<path d="M17.8462 2.95238H8.92308V0H17.8462V2.95238ZM14.8718 26.5714C14.8718 28.0919 15.2585 29.5238 15.9277 30.749C15.1097 30.9114 14.2621 31 13.3846 31C5.99333 31 0 25.051 0 17.7143C0 10.3776 5.99333 4.42857 13.3846 4.42857C16.5374 4.42857 19.4374 5.52095 21.7426 7.38095L23.8544 5.25524C24.6128 5.90476 25.2821 6.58381 25.9513 7.33667L23.8395 9.43286C25.6687 11.7062 26.7692 14.5848 26.7692 17.7143C26.7692 17.8914 26.7692 18.0538 26.7692 18.231C25.8174 17.9062 24.8359 17.7143 23.7949 17.7143C18.8723 17.7143 14.8718 21.6852 14.8718 26.5714ZM14.8718 8.85714H11.8974V19.1905H14.8718V8.85714ZM27.2749 21.9067L21.9359 27.2062L19.5713 24.859L17.8462 26.5714L21.9359 31L29 23.9881L27.2749 21.9067Z" fill="#00398E"/>
</svg>
