<svg width="64" height="73" viewBox="0 0 64 73" fill="none" xmlns="http://www.w3.org/2000/svg">
<path d="M53.759 34.4544C56.3101 19.7522 50.1613 1.08665 33.1542 -3.83183e-05C27.725 -0.319653 22.4266 1.59803 19.6793 5.36949C10.2599 9.0131 9.47496 25.1217 10.5216 30.683C13.3997 45.8966 -0.467697 43.2758 3.06456 57.5306L32.0422 55.9965H33.1542L61.6085 56.38C64.0287 45.577 52.5816 46.3441 53.759 34.4544Z" fill="#4C224B"/>
<path d="M41.0036 32.6006H23.931V53.9508H41.0036V32.6006Z" fill="#E2988F"/>
<path d="M63.8979 55.549C55.8522 52.2889 41.1344 49.7959 41.1344 49.7959C35.509 54.4623 28.3791 54.3984 23.931 49.7959C23.931 49.7959 9.08246 51.9693 0.644287 54.8458C6.66221 65.2653 17.8477 72.4246 30.7993 72.9999C31.388 72.9999 31.9767 73.0639 32.5654 73.0639C45.9095 72.9999 57.5529 65.9684 63.8979 55.549Z" fill="#D85D63"/>
<path d="M47.6102 30.0437C46.9561 30.0437 46.4328 30.9386 46.4328 32.0253C46.4328 33.112 46.9561 34.0069 47.6102 34.0069C48.2643 34.0069 48.7876 33.112 48.7876 32.0253C48.7876 30.9386 48.2643 30.0437 47.6102 30.0437ZM47.6102 33.1759C47.1523 33.1759 46.8253 32.5367 46.8253 31.7696C46.8253 31.0025 47.1523 30.3633 47.6102 30.3633C48.0681 30.3633 48.3952 31.0025 48.3952 31.7696C48.4606 32.6006 48.0681 33.1759 47.6102 33.1759Z" fill="white"/>
<path d="M16.147 32.0892C16.147 33.1759 16.6703 34.0708 17.3244 34.0708C17.9785 34.0708 18.5018 33.1759 18.5018 32.0892C18.5018 31.0025 17.9131 30.0437 17.3244 30.0437C16.6703 30.0437 16.147 30.9386 16.147 32.0892ZM16.5394 31.8335C16.5394 31.0665 16.8665 30.4272 17.3244 30.4272C17.7823 30.4272 18.1093 31.0665 18.1093 31.8335C18.1093 32.6006 17.7823 33.2398 17.3244 33.2398C16.8665 33.1759 16.5394 32.6006 16.5394 31.8335Z" fill="white"/>
<path d="M32.5 6.8396C21.4454 6.8396 18.9597 14.8939 19.2214 23.076C19.2214 28.9569 19.1559 33.2398 19.7446 34.71C20.2679 36.1802 24.1927 44.8737 32.5 44.8737C40.8728 44.8737 44.7321 36.1163 45.2554 34.71C45.8441 33.2398 45.7787 28.9569 45.7787 23.076C46.0403 14.8939 43.4893 6.8396 32.5 6.8396Z" fill="#E2988F"/>
<path d="M32.5 45.0656C29.2294 45.0656 26.2858 43.7871 23.7347 41.1663L24.0618 40.8467C26.5475 43.3397 29.3602 44.5542 32.5 44.5542C35.5743 44.5542 38.3871 43.3397 40.8073 40.9745L41.1344 41.2941C38.6487 43.7871 35.7052 45.0656 32.5 45.0656Z" fill="#C46966"/>
<path d="M19.6792 22.7563C19.6792 22.7563 17.4552 19.5602 15.1658 21.414C12.8763 23.2677 15.1004 33.8789 19.6792 32.0252C24.1927 30.1075 19.6792 22.7563 19.6792 22.7563Z" fill="#E2988F"/>
<path d="M45.3208 22.7563C45.3208 22.7563 47.5448 19.5602 49.8342 21.414C52.1237 23.2677 49.8996 33.8789 45.3208 32.0252C40.8074 30.1075 45.3208 22.7563 45.3208 22.7563Z" fill="#E2988F"/>
<path d="M19.3534 28.6851L18.8315 28.7229L19.0928 32.1654L19.6147 32.1276L19.3534 28.6851Z" fill="#C46966"/>
<path d="M45.7037 28.3287L45.4171 32.0896L45.9389 32.1276L46.2255 28.3667L45.7037 28.3287Z" fill="#C46966"/>
<path d="M16.2778 26.9115C15.7545 25.1855 15.7545 24.0349 16.2778 23.3957C16.6703 22.9482 17.1936 22.9482 17.1936 22.9482V23.3957V23.14V23.3957C17.1936 23.3957 16.8665 23.3957 16.6703 23.6514C16.474 23.9071 16.147 24.7381 16.8011 26.7197L16.2778 26.9115Z" fill="#C46966"/>
<path d="M48.853 26.9115L48.3952 26.7837C48.9839 24.8021 48.7222 23.9711 48.526 23.7154C48.3297 23.4597 48.0027 23.4597 48.0027 23.4597V23.0122C48.0027 23.0122 48.526 23.0122 48.9185 23.4597C49.4418 24.035 49.3763 25.1856 48.853 26.9115Z" fill="#C46966"/>
<path d="M18.2401 32.6006C18.1747 32.6006 18.1093 32.6006 17.9785 32.6006H17.9131C17.7823 32.9842 17.5206 33.2398 17.259 33.2398C16.8011 33.2398 16.474 32.6006 16.474 31.8335C16.474 31.0665 16.8011 30.4272 17.259 30.4272C17.5206 30.4272 17.4552 30.0437 17.259 30.0437C16.6048 30.0437 16.0815 30.9386 16.0815 32.0253C16.0815 33.112 16.6048 34.0069 17.259 34.0069C17.7823 34.0069 18.2401 33.3677 18.371 32.5367C18.371 32.6006 18.3056 32.6006 18.2401 32.6006Z" fill="white"/>
<path d="M47.6756 30.0437C47.4794 30.0437 47.414 30.3633 47.6756 30.4272C48.1335 30.4272 48.4606 31.0665 48.4606 31.8335C48.4606 32.6006 48.1335 33.2398 47.6756 33.2398C47.414 33.2398 47.2177 33.0481 47.0869 32.7285C47.0215 32.7285 47.0215 32.7924 46.9561 32.7924C46.8907 32.8563 46.7599 32.9202 46.629 32.9842C46.8253 33.6234 47.2177 34.1348 47.6756 34.1348C48.3297 34.1348 48.853 33.2398 48.853 32.1532C48.7876 30.9386 48.2643 30.0437 47.6756 30.0437Z" fill="white"/>
<path d="M19.0905 22.0533C19.0251 16.3641 23.3423 13.4237 23.3423 13.4237C27.267 20.1356 38.06 22.4368 47.9373 19.1128C47.9373 19.1128 46.9561 2.94032 31.5188 3.89917C16.1469 4.79409 19.0905 22.0533 19.0905 22.0533Z" fill="#4C224B"/>
</svg>
