<svg width="67" height="71" viewBox="0 0 67 71" fill="none" xmlns="http://www.w3.org/2000/svg">
<path d="M33.5 70.9399C52.0015 70.9399 67 55.9081 67 37.3653C67 18.8226 52.0015 3.79077 33.5 3.79077C14.9985 3.79077 0 18.8226 0 37.3653C0 55.9081 14.9985 70.9399 33.5 70.9399Z" fill="#FCE8E3"/>
<path d="M43.466 32.9729H23.5941V53.0695H43.466V32.9729Z" fill="#E2988F"/>
<path d="M50.8503 18.8932C49.8898 16.5466 47.8486 17.6898 47.8486 17.6898C49.0493 7.03983 43.646 0 33.5 0C23.3539 0 17.9507 7.03983 19.0914 17.6898C19.0914 17.6898 17.1102 16.5466 16.0896 18.8932C15.129 21.2398 16.8701 26.7153 18.0107 28.4602C19.0914 30.2051 21.0726 29.7839 21.0726 29.7839C21.0726 29.7839 21.1926 33.4542 21.733 34.8381C22.2133 36.222 25.8154 44.4051 33.5 44.4051C41.1846 44.4051 44.7267 36.1619 45.267 34.8381C45.7473 33.4542 45.9274 29.6034 45.9274 29.6034C45.9274 29.6034 47.9086 30.1449 48.9892 28.4C50.0699 26.7153 51.871 21.2398 50.8503 18.8932Z" fill="#E2988F"/>
<path d="M33.5 44.6459C28.6971 44.6459 24.1944 39.4713 23.3539 38.3882L23.7142 38.0874C24.5547 39.1103 28.8772 44.1645 33.5 44.1645C38.1828 44.1645 42.4453 39.1705 43.2858 38.2077L43.6461 38.5086C42.8056 39.5315 38.3629 44.6459 33.5 44.6459Z" fill="#C46966"/>
<path d="M21.1576 26.9446L20.7383 26.9727L20.9261 29.7944L21.3454 29.7664L21.1576 26.9446Z" fill="#C46966"/>
<path d="M45.9054 26.9375L45.6908 29.6365L46.1695 29.6747L46.3841 26.9757L45.9054 26.9375Z" fill="#C46966"/>
<path d="M17.4704 24.1881C16.8101 21.661 16.9301 20.1567 17.7706 19.3745L18.0708 19.7355C17.3504 20.3974 17.2903 21.8415 17.8907 24.1279L17.4704 24.1881Z" fill="#C46966"/>
<path d="M49.6496 24.1882L49.2294 24.0678C49.8297 21.7814 49.7697 20.3373 49.0493 19.6755L49.3494 19.3145C50.1899 20.1568 50.31 21.6611 49.6496 24.1882Z" fill="#C46966"/>
<path d="M49.8298 7.76186C46.0475 4.75339 42.3253 1.68475 39.4436 0.962712C37.7025 0.361017 35.7213 0 33.5 0C26.5959 0 20.8324 2.10593 19.9919 8.66441C16.81 9.98813 17.4104 15.1627 18.0708 17.389C18.0708 17.389 18.6111 17.389 19.0914 17.6898C20.4122 18.5924 20.7124 20.939 20.5323 23.2856C23.5341 23.2856 21.2527 13.5983 23.6541 11.1915C32.5995 16.8475 44.4866 13.839 44.4866 13.839C44.8468 17.5093 44.3065 23.2254 46.4678 23.2254C46.2276 21.0593 46.2276 18.5924 47.9086 17.6898C48.1488 15.5839 48.0887 13.5983 47.8486 11.7331C48.8692 10.7703 49.7697 9.44661 49.8298 7.76186Z" fill="#F4BA5D"/>
<path d="M25.8154 29.7238C22.3933 29.7238 19.5717 26.8958 19.5717 23.4661C19.5717 20.0365 22.3933 17.2085 25.8154 17.2085C29.2374 17.2085 32.0591 20.0365 32.0591 23.4661C32.0591 26.8958 29.2374 29.7238 25.8154 29.7238ZM25.8154 17.6899C22.6335 17.6899 20.0519 20.2771 20.0519 23.4661C20.0519 26.6551 22.6335 29.2424 25.8154 29.2424C28.9973 29.2424 31.5788 26.6551 31.5788 23.4661C31.5788 20.2771 28.9973 17.6899 25.8154 17.6899Z" fill="white"/>
<path d="M41.1846 29.7238C37.7625 29.7238 34.9409 26.8958 34.9409 23.4661C34.9409 20.0365 37.7625 17.2085 41.1846 17.2085C44.6066 17.2085 47.4283 20.0365 47.4283 23.4661C47.4283 26.8958 44.6066 29.7238 41.1846 29.7238ZM41.1846 17.6899C38.0027 17.6899 35.4211 20.2771 35.4211 23.4661C35.4211 26.6551 38.0027 29.2424 41.1846 29.2424C44.3665 29.2424 46.948 26.6551 46.948 23.4661C46.948 20.2771 44.3665 17.6899 41.1846 17.6899Z" fill="white"/>
<path d="M35.241 22.0823C34.5806 21.4806 33.8602 21.1798 33.1998 21.24C32.6595 21.3001 32.1792 21.5408 31.819 22.0222L31.4587 21.7815C31.879 21.24 32.4793 20.8789 33.1397 20.8188C33.9802 20.7586 34.8207 21.0594 35.5412 21.7815L35.241 22.0823Z" fill="white"/>
<path d="M62.1371 54.8145C52.6514 50.6026 43.466 49.0984 43.466 49.0984C38.7231 54.0323 27.7366 54.0925 23.5941 49.0984C23.5941 49.0984 14.3486 50.6026 4.86292 54.8145C10.7464 64.5018 21.3728 70.9399 33.5 70.9399C45.6273 71.0001 56.2536 64.5018 62.1371 54.8145Z" fill="#94A5E4"/>
<path d="M33.1998 55.7771C27.7365 55.7771 22.9337 53.4906 19.9319 50.0008L20.2921 49.7C25.7554 56.0779 37.0421 58.1839 47.9086 49.9406L48.2088 50.3016C43.0457 54.1525 37.8826 55.7771 33.1998 55.7771Z" fill="#6C82BC"/>
</svg>
