<svg width="69" height="72" viewBox="0 0 69 72" fill="none" xmlns="http://www.w3.org/2000/svg">
<path d="M34.5 72.0001C53.5538 72.0001 69 56.6394 69 37.691C69 18.7426 53.5538 3.38184 34.5 3.38184C15.4462 3.38184 0 18.7426 0 37.691C0 56.6394 15.4462 72.0001 34.5 72.0001Z" fill="#FCE8E3"/>
<path d="M34.3764 47.0983C40.0788 47.0983 44.7016 46.4376 44.7016 45.6226C44.7016 44.8076 40.0788 44.147 34.3764 44.147C28.6739 44.147 24.0511 44.8076 24.0511 45.6226C24.0511 46.4376 28.6739 47.0983 34.3764 47.0983Z" fill="#94A5E4"/>
<path d="M43.6505 33.2024H25.4113V53.7387H43.6505V33.2024Z" fill="#E2988F"/>
<path d="M52.9247 19.8599C51.8737 17.4005 49.7715 18.6302 49.7715 18.6302C51.0081 7.43979 45.2581 0 34.5 0C23.7419 0 17.9919 7.43979 19.2285 18.6302C19.2285 18.6302 17.1263 17.4005 16.0753 19.8599C15.0242 22.3194 16.9409 28.0991 18.1156 29.9436C19.2903 31.7882 21.3925 33.2024 21.3925 33.2024C21.3925 33.2024 21.5161 35.2929 22.0726 36.7071C22.629 38.1213 28.75 44.7617 30.543 45.7455C32.8925 47.1597 36.4167 47.1597 38.5188 45.7455C40.3118 44.7617 46.4946 38.1213 46.9893 36.7071C47.5457 35.2929 47.6694 33.2024 47.6694 33.2024C47.6694 33.2024 49.7715 31.7882 50.9462 29.9436C52.0591 28.1605 53.9758 22.3809 52.9247 19.8599Z" fill="#E2988F"/>
<path d="M17.4973 25.4552C17.3737 25.0863 16.5699 21.889 17.7446 21.0282C18.1156 20.7822 18.4247 20.7822 18.6102 20.8437C19.2285 21.0282 19.5376 21.8275 19.5376 21.8275L19.1048 22.012C19.043 21.8275 18.7957 21.3971 18.4866 21.2741C18.3629 21.2126 18.1774 21.2741 17.9919 21.3971C17.3118 21.889 17.621 24.1025 17.9301 25.3322L17.4973 25.4552Z" fill="#C46966"/>
<path d="M51.5645 25.4551L51.1317 25.3322C51.379 24.4099 51.8737 21.9504 51.0699 21.3971C50.8844 21.2741 50.7608 21.2741 50.5753 21.3356C50.2661 21.4586 50.0188 21.889 49.957 22.0734L49.5242 21.889C49.5242 21.8275 49.8333 21.0896 50.4516 20.9052C50.6371 20.8437 50.9462 20.8437 51.3172 21.0282C52.4919 21.889 51.6264 25.0862 51.5645 25.4551Z" fill="#C46966"/>
<path d="M34.5 0C23.7419 0 17.9919 7.43979 19.2285 18.6302C20.6505 19.5525 20.9597 22.0734 20.7742 24.5329C20.7742 24.5329 20.2796 32.4031 21.8871 36.1537C23.4328 39.9044 26.1532 45.684 34.5618 45.6225C42.9704 45.684 45.6909 39.9044 47.2366 36.1537C48.7823 32.4031 48.3495 24.5329 48.3495 24.5329C48.1022 22.1349 48.1022 19.5525 49.8952 18.6302C51.0081 7.37831 45.2581 0 34.5 0ZM46.3091 17.2161C46.3091 17.2161 46.1237 27.5457 44.5161 29.7592C42.9086 32.0342 43.4032 26.9923 34.5618 26.9308C25.7204 26.8693 26.2151 32.0342 24.6075 29.7592C23 27.4842 22.8145 17.2775 22.8145 17.2161C22.9382 14.9411 23.1237 12.7891 24.1129 11.8053C25.4113 10.5756 27.2661 10.76 28.8118 11.129C30.6667 11.6208 32.5833 12.2357 34.5618 12.2972C36.664 12.3587 38.5807 11.6208 40.621 11.129C42.1667 10.76 43.836 10.5756 45.0726 11.8053C45.9382 12.7891 46.1855 15.0026 46.3091 17.2161Z" fill="#4C224B"/>
<path d="M65.7231 52.3246C57.0672 50.234 44.7016 49.6807 44.7016 49.6807C38.3333 54.7225 29.7393 54.784 24.1129 49.6807C24.1129 49.6807 11.9328 50.48 3.33871 52.509C8.90323 64.0684 20.7742 72.0615 34.5 72.0615C48.2876 72 60.2204 63.9454 65.7231 52.3246Z" fill="#94A5E4"/>
<path d="M24.1129 45.6226V50.7874C31.4086 56.1366 38.2715 56.1981 44.7016 50.7874V45.6226C41.0538 47.959 26.4624 47.6516 24.1129 45.6226Z" fill="#94A5E4"/>
<path d="M34.1909 52.8165C33.2016 52.8165 32.2124 52.755 31.2231 52.6935C29.3065 52.5091 24.793 51.8942 23.9274 49.9266L24.3602 49.7422C24.9167 50.9719 27.4516 51.8942 31.285 52.2631C36.5403 52.6935 43.1559 51.8942 44.578 49.7422L44.9489 49.9881C43.6505 51.8942 38.8898 52.8165 34.1909 52.8165Z" fill="#6C82BC"/>
<path d="M34.1909 48.5738C32.336 48.5738 30.4812 48.5123 28.9973 48.3278C26.4005 48.0204 24.793 47.59 24.3602 46.9752L24.7312 46.7292C24.9167 46.9752 25.6586 47.5285 29.0591 47.8974C34.4382 48.4508 42.5995 48.0204 44.1452 46.6677L44.4543 47.0366C43.1559 48.0819 38.5188 48.5738 34.1909 48.5738Z" fill="#6C82BC"/>
</svg>
