<svg width="35" height="35" viewBox="0 0 35 35" fill="none" xmlns="http://www.w3.org/2000/svg">
<path id="Vector" d="M17.5 31.5C9.7825 31.5 3.5 25.2175 3.5 17.5C3.5 9.7825 9.7825 3.5 17.5 3.5C25.2175 3.5 31.5 9.7825 31.5 17.5C31.5 25.2175 25.2175 31.5 17.5 31.5ZM17.5 0C7.8225 0 0 7.8225 0 17.5C0 27.1775 7.8225 35 17.5 35C27.1775 35 35 27.1775 35 17.5C35 7.8225 27.1775 0 17.5 0ZM22.0325 10.5L17.5 15.0325L12.9675 10.5L10.5 12.9675L15.0325 17.5L10.5 22.0325L12.9675 24.5L17.5 19.9675L22.0325 24.5L24.5 22.0325L19.9675 17.5L24.5 12.9675L22.0325 10.5Z" fill="#C4C4C4"/>
</svg>
