<svg width="79" height="99" viewBox="0 0 79 99" fill="none" xmlns="http://www.w3.org/2000/svg">
<path fill-rule="evenodd" clip-rule="evenodd" d="M32.8239 0H24.3921V32.8239L3.68567e-07 32.8239L0 41.2558L32.8239 41.2558V32.8239L32.8239 32.8239V0Z" fill="#D9D9D9"/>
<path fill-rule="evenodd" clip-rule="evenodd" d="M32.8239 98.0891H24.3921V65.2651L3.68567e-07 65.2651L0 56.8333L32.8239 56.8333V65.2651L32.8239 65.2651V98.0891Z" fill="#D9D9D9"/>
<path fill-rule="evenodd" clip-rule="evenodd" d="M46.1761 0H54.6079V32.8239L79 32.8239L79 41.2558L46.1761 41.2558V32.8239L46.1761 32.8239V0Z" fill="#D9D9D9"/>
<path fill-rule="evenodd" clip-rule="evenodd" d="M46.1761 98.0891H54.6079V65.2651L79 65.2651L79 56.8333L46.1761 56.8333V65.2651L46.1761 65.2651V98.0891Z" fill="#D9D9D9"/>
</svg>
