<svg width="118" height="125" viewBox="0 0 118 125" fill="none" xmlns="http://www.w3.org/2000/svg">
<path fill-rule="evenodd" clip-rule="evenodd" d="M78.2671 16.7433L71.0147 12.4423L54.2714 40.6747L33.2914 28.2325L28.9903 35.4848L57.2228 52.2282L61.5238 44.9758L61.5238 44.9758L78.2671 16.7433Z" fill="#D9D9D9"/>
<path fill-rule="evenodd" clip-rule="evenodd" d="M28.2324 101.111L20.9801 96.8104L37.7234 68.578L16.7433 56.1357L21.0443 48.8833L49.2768 65.6267L44.9758 72.879L44.9758 72.879L28.2324 101.111Z" fill="#D9D9D9"/>
<path fill-rule="evenodd" clip-rule="evenodd" d="M89.7516 23.5542L97.0039 27.8552L80.2606 56.0877L101.241 68.5299L96.9397 75.7823L68.7072 59.039L73.0082 51.7866L73.0083 51.7867L89.7516 23.5542Z" fill="#D9D9D9"/>
<path fill-rule="evenodd" clip-rule="evenodd" d="M39.7169 107.922L46.9693 112.223L63.7126 83.9909L84.6927 96.4332L88.9937 89.1808L60.7612 72.4375L56.4602 79.6899L56.4602 79.6899L39.7169 107.922Z" fill="#D9D9D9"/>
</svg>
