<svg width="171" height="62" viewBox="0 0 171 62" fill="none" xmlns="http://www.w3.org/2000/svg">
<path d="M166.457 2.53861C166.202 1.18162 164.896 0.288127 163.539 0.542945L141.425 4.69544C140.068 4.95026 139.175 6.25689 139.429 7.61389C139.684 8.97088 140.991 9.86437 142.348 9.60955L162.004 5.91844L165.695 25.5749C165.95 26.9319 167.257 27.8254 168.614 27.5706C169.971 27.3157 170.864 26.0091 170.61 24.6521L166.457 2.53861ZM0.891235 48.0534C17.7838 56.4124 46.2026 64.2132 76.8402 60.5884C107.584 56.9511 140.491 41.808 166.064 4.41115L161.936 1.58885C137.243 37.6997 105.679 52.1416 76.2528 55.623C46.7207 59.117 19.2722 51.5703 3.10877 43.572L0.891235 48.0534Z" fill="#00398E"/>
</svg>
