<svg width="73" height="73" viewBox="0 0 73 73" fill="none" xmlns="http://www.w3.org/2000/svg">
<path d="M36.5 72.9381C56.6584 72.9381 73 57.4829 73 38.4178C73 19.3527 56.6584 3.89746 36.5 3.89746C16.3416 3.89746 0 19.3527 0 38.4178C0 57.4829 16.3416 72.9381 36.5 72.9381Z" fill="#FCE8E3"/>
<path d="M46.181 33.9016H26.8844V54.5643H46.181V33.9016Z" fill="#E2988F"/>
<path d="M55.4041 19.4254C54.3575 17.0127 52.1335 18.1881 52.1335 18.1881C53.4418 7.23813 47.5547 0 36.5 0C25.4453 0 19.5582 7.23813 20.8011 18.1881C20.8011 18.1881 18.6425 17.0127 17.5305 19.4254C16.4185 21.8381 18.3808 27.4678 19.6237 29.2619C20.8011 31.0559 22.9597 32.417 22.9597 32.417C22.9597 32.417 23.0905 34.4585 23.6792 35.8195C24.2025 37.2424 30.5475 43.6763 32.379 44.6661C34.7993 46.0271 38.397 46.0271 40.5556 44.6661C42.3871 43.6763 48.7321 37.2424 49.2554 35.8195C49.7787 34.3966 49.9749 32.417 49.9749 32.417C49.9749 32.417 52.1335 31.0559 53.3109 29.2619C54.5538 27.4678 56.5161 21.8381 55.4041 19.4254Z" fill="#E2988F"/>
<path d="M36.6308 45.9036C35.1263 45.9036 33.5565 45.5324 32.3136 44.8519C31.2016 44.2333 28.5851 41.8206 26.6882 39.7791L27.0806 39.4697C29.043 41.5113 31.5287 43.8621 32.5753 44.4189C34.9301 45.718 38.397 45.718 40.4901 44.4189C41.5367 43.8621 44.0224 41.5113 45.9848 39.4697L46.3772 39.7791C44.4803 41.8206 41.8638 44.2333 40.7518 44.8519C39.6398 45.5943 38.1353 45.9036 36.6308 45.9036Z" fill="#C46966"/>
<path d="M22.5887 27.7112L22.1342 27.7642L22.7507 32.492L23.2052 32.439L22.5887 27.7112Z" fill="#C46966"/>
<path d="M50.315 27.7179L49.7652 32.3909L50.2853 32.4456L50.8351 27.7726L50.315 27.7179Z" fill="#C46966"/>
<path d="M19.035 24.8076C18.9041 24.4364 18.0538 21.3431 19.2312 20.477C19.6237 20.2296 19.9507 20.2296 20.147 20.2914C20.7357 20.477 21.0627 21.2194 21.0627 21.2813L20.6048 21.4669C20.5394 21.2813 20.2778 20.8482 19.9507 20.7864C19.8199 20.7245 19.6237 20.7864 19.4928 20.9101C18.7733 21.405 19.1004 23.5084 19.4274 24.7457L19.035 24.8076Z" fill="#C46966"/>
<path d="M54.0305 24.8077L53.5726 24.684C53.8997 23.4467 54.2267 21.3433 53.5072 20.8484C53.3109 20.7247 53.1801 20.7247 53.0493 20.7866C52.6568 20.9103 52.3952 21.4671 52.3952 21.4671L51.9373 21.2815C52.0027 21.2196 52.2643 20.4772 52.8531 20.2916C53.0493 20.2298 53.3764 20.2298 53.7688 20.4154C55.0117 21.3433 54.0959 24.4984 54.0305 24.8077Z" fill="#C46966"/>
<path d="M22.371 23.9415C25.6416 23.9415 23.1559 13.9814 25.7724 11.5068C27.0806 10.2695 28.9776 10.4551 30.6129 10.8881C32.5099 11.3212 34.4722 11.9398 36.5 12.0017C38.6586 12.0636 40.621 11.3212 42.7142 10.8263C44.284 10.4551 46.0502 10.3314 47.293 11.5068C49.8441 13.9195 47.3584 23.9415 50.6944 23.9415C50.3674 21.6525 50.3674 19.1161 52.1989 18.1881C53.4418 7.23813 47.5547 0 36.5 0C25.4453 0 19.5582 7.23813 20.8011 18.1881C22.3056 19.0542 22.6326 21.5288 22.371 23.9415Z" fill="#4C224B"/>
<path d="M67.7016 56.3586C57.3665 52.0281 46.181 50.4814 46.181 50.4814C41.0134 55.5543 31.3979 55.6162 26.8844 50.4814C26.8844 50.4814 15.6335 52.0281 5.3638 56.3586C11.7742 66.3187 23.3522 72.9382 36.5654 72.9382C49.7133 73.0001 61.2912 66.3187 67.7016 56.3586Z" fill="#F4BA5D"/>
<path d="M24.2679 50.8524L26.8844 46.3982L35.3226 53.5745L30.155 58.9567L24.2679 50.8524Z" fill="white"/>
<path d="M48.7975 50.8524L46.181 46.3982L37.7428 53.5745L42.9104 58.9567L48.7975 50.8524Z" fill="white"/>
</svg>
