<svg width="67" height="72" viewBox="0 0 67 72" fill="none" xmlns="http://www.w3.org/2000/svg">
<path d="M33.5 72.0001C52.0015 72.0001 67 56.9605 67 38.4081C67 19.8558 52.0015 4.81616 33.5 4.81616C14.9985 4.81616 0 19.8558 0 38.4081C0 56.9605 14.9985 72.0001 33.5 72.0001Z" fill="#FCE8E3"/>
<path d="M55.4131 56.1071C64.8987 49.6656 59.2554 39.1305 50.6702 24.9834C49.4095 22.9365 48.629 20.6489 48.1487 18.3613C46.7679 11.4984 40.7043 6.38135 33.44 6.38135C26.1156 6.38135 20.052 11.6188 18.7312 18.5419C18.2509 20.9499 17.5305 23.2977 16.3298 25.465C8.46506 40.3947 0.720435 52.4951 12.0072 56.1673H55.4131V56.1071Z" fill="#4C224B"/>
<path d="M41.3047 33.9531H25.6353V54.0602H41.3047V33.9531Z" fill="#E2988F"/>
<path d="M62.3172 55.5652C54.9328 52.4347 41.4247 50.0869 41.4247 50.0869C36.2616 54.4816 29.7177 54.4214 25.6353 50.0869C25.6353 50.0869 12.0072 52.1337 4.26254 54.8428C9.78584 64.6555 20.052 71.398 31.9391 71.9398C32.4794 71.9398 33.0197 72 33.56 72C45.8073 72 56.4937 65.3779 62.3172 55.5652Z" fill="#F4BA5D"/>
<path d="M25.6353 47.7993L22.5134 50.5685C22.5134 50.5685 24.3145 58.3946 27.9767 58.515C31.6389 58.6354 33.3799 53.3378 33.3799 53.3378C29.9579 52.4348 27.3163 50.5685 25.6353 47.7993Z" fill="white"/>
<path d="M41.3647 47.7993L44.4866 50.5685C44.4866 50.5685 42.6855 58.3946 39.0233 58.515C35.3611 58.6354 33.6201 53.3378 33.6201 53.3378C37.0421 52.4348 39.6237 50.5685 41.3647 47.7993Z" fill="white"/>
<path d="M33.5 14.4482C37.4788 14.4482 40.7043 11.2138 40.7043 7.22408C40.7043 3.23433 37.4788 0 33.5 0C29.5212 0 26.2957 3.23433 26.2957 7.22408C26.2957 11.2138 29.5212 14.4482 33.5 14.4482Z" fill="#4C224B"/>
<path d="M33.5 9.63208C23.3539 9.63208 21.0726 17.2174 21.3127 24.9231C21.3127 30.4615 20.9525 32.2073 21.4328 33.5919C21.733 35.5184 25.6353 45.4515 33.5 45.4515C41.3647 45.4515 44.9668 36.0602 45.6272 33.5919C46.1676 32.2073 45.6873 30.4615 45.6873 24.9231C45.8674 17.2776 43.586 9.63208 33.5 9.63208Z" fill="#E2988F"/>
<path d="M33.5 45.6922C30.5582 45.6922 27.8566 44.3678 25.5152 41.719L25.8754 41.418C28.1568 43.9464 30.7383 45.2106 33.56 45.2106C36.4418 45.2106 39.0233 43.9464 41.2446 41.418L41.6048 41.719C39.2034 44.3076 36.5018 45.6922 33.5 45.6922Z" fill="#C46966"/>
<path d="M21.733 25.1038C21.733 25.1038 19.6918 22.4549 17.5905 24.0202C15.4892 25.5854 17.5305 34.3145 21.733 32.7492C25.8754 31.184 21.733 25.1038 21.733 25.1038Z" fill="#E2988F"/>
<path d="M45.267 25.1038C45.267 25.1038 47.3082 22.4549 49.4095 24.0202C51.5107 25.5854 49.4695 34.3145 45.267 32.7492C41.1245 31.184 45.267 25.1038 45.267 25.1038Z" fill="#E2988F"/>
<path d="M20.8682 29.1315L20.452 29.1897L20.9743 32.9459L21.3905 32.8877L20.8682 29.1315Z" fill="#C46966"/>
<path d="M46.0144 29.1048L45.6641 32.8811L46.0825 32.9201L46.4328 29.1438L46.0144 29.1048Z" fill="#C46966"/>
<path d="M18.6111 28.5351C18.1308 27.2107 18.1308 26.2475 18.5511 25.6455C18.9113 25.1639 19.4516 25.2241 19.4516 25.2241V25.6455V25.4047V25.6455C19.4516 25.6455 19.1514 25.6455 18.9113 25.8863C18.6711 26.1873 18.5511 26.8495 19.0314 28.3545L18.6111 28.5351Z" fill="#C46966"/>
<path d="M48.509 28.535L48.0887 28.4146C48.629 26.9096 48.4489 26.2474 48.2088 25.9464C48.0287 25.6454 47.6685 25.7056 47.6685 25.7056V25.2842C47.6685 25.2842 48.2088 25.2842 48.569 25.7056C48.9892 26.2474 48.9892 27.2106 48.509 28.535Z" fill="#C46966"/>
<path d="M47.5484 33.3512C48.0789 33.3512 48.509 32.92 48.509 32.388C48.509 31.856 48.0789 31.4248 47.5484 31.4248C47.0179 31.4248 46.5878 31.856 46.5878 32.388C46.5878 32.92 47.0179 33.3512 47.5484 33.3512Z" fill="white"/>
<path d="M19.5717 33.3512C20.1022 33.3512 20.5323 32.92 20.5323 32.388C20.5323 31.856 20.1022 31.4248 19.5717 31.4248C19.0412 31.4248 18.6111 31.856 18.6111 32.388C18.6111 32.92 19.0412 33.3512 19.5717 33.3512Z" fill="white"/>
<path d="M20.7724 21.2508C28.8172 22.9364 37.2823 23.0568 46.2276 21.2508C46.2276 21.2508 46.4077 8.84946 33.8602 8.42806C21.2527 8.00666 20.7724 21.2508 20.7724 21.2508Z" fill="#4C224B"/>
<path d="M40.5242 8.36795C35.8414 6.56192 31.0986 6.56192 26.4158 8.36795L26.2357 7.94654C31.0385 6.08032 35.8414 6.08032 40.6443 7.94654L40.5242 8.36795Z" fill="#703870"/>
<path d="M46.5878 21.0702C46.2276 17.5785 45.0269 14.4481 42.9256 11.9197L43.2858 11.6187C45.4471 14.2675 46.7079 17.3979 47.0681 21.01L46.5878 21.0702Z" fill="#703870"/>
<path d="M20.7124 21.0702L20.2921 21.01C20.6523 17.3979 21.9131 14.2073 24.0744 11.6187L24.4346 11.9197C22.2733 14.4481 21.0726 17.5785 20.7124 21.0702Z" fill="#703870"/>
<path d="M24.7948 21.9131L24.3745 21.8529C24.5546 19.8663 24.9149 17.8797 25.5753 15.8931L25.9955 16.0135C25.3351 18.0001 24.9749 19.9867 24.7948 21.9131Z" fill="#703870"/>
<path d="M40.9444 22.1539H40.4642C40.5242 20.8295 40.2841 19.2041 39.8038 17.4583L40.224 17.3379C40.7643 19.1439 40.9444 20.7693 40.9444 22.1539Z" fill="#703870"/>
<path d="M39.3835 15.893C39.0233 14.8696 38.7832 14.1472 38.7832 14.1472L39.2034 13.9666C39.2034 13.9666 39.5036 14.689 39.8638 15.7124L39.3835 15.893Z" fill="#703870"/>
</svg>
