<svg width="72" height="72" viewBox="0 0 72 72" fill="none" xmlns="http://www.w3.org/2000/svg">
<path d="M36 71.9999C55.8822 71.9999 72 55.9826 72 36.2243C72 16.466 55.8822 0.44873 36 0.44873C16.1177 0.44873 0 16.466 0 36.2243C0 55.9826 16.1177 71.9999 36 71.9999Z" fill="#FCE8E3"/>
<path d="M45.6129 31.48H26.5807V52.8941H45.6129V31.48Z" fill="#E2988F"/>
<path d="M66.9032 54.8174C56.7097 50.3294 45.6774 48.7266 45.6774 48.7266C40.5807 53.9839 31.0968 54.048 26.6452 48.7266C26.6452 48.7266 15.5484 50.3294 5.41936 54.8174C11.7419 65.1397 23.1613 71.9999 36.1936 71.9999C49.1613 71.9999 60.5806 65.1397 66.9032 54.8174Z" fill="white"/>
<path d="M47.6774 49.0471V70.0765C55.7419 67.3837 62.5161 61.8699 66.8387 54.7533C59.3548 51.4835 51.3548 49.7524 47.6774 49.0471Z" fill="#F4BA5D"/>
<path d="M24.4516 49.0471C20.7742 49.7524 12.7742 51.4835 5.29033 54.8174C9.61291 61.934 16.3871 67.3837 24.4516 70.0765V49.0471Z" fill="#F4BA5D"/>
<path d="M35.8065 55.1379C35.7419 55.1379 35.6774 55.1379 35.6129 55.1379C30.7097 55.0737 26.5161 52.958 24.1936 49.2394L24.5807 48.9829C26.8387 52.5733 30.8387 54.6249 35.5484 54.6891C40.5161 54.7532 45.0323 52.5733 47.4194 48.9829L47.8065 49.2394C45.4839 52.8297 40.9032 55.1379 35.8065 55.1379Z" fill="#EABFB9"/>
<path d="M54.7742 20.1318C53.7419 17.6313 51.5484 18.8495 51.5484 18.8495C52.7742 7.50133 46.9678 0 36.129 0C25.2258 0 19.4194 7.50133 20.6452 18.8495C20.6452 18.8495 18.5161 17.6313 17.4194 20.1318C16.3226 22.6322 18.2581 28.4666 19.4839 30.3259C20.6452 32.1852 22.4516 31.4158 22.4516 31.4158C22.4516 31.4158 22.9032 35.7115 23.4194 37.122C23.9355 38.5966 30.1936 45.2645 32 46.2903C34.3871 47.7008 37.9355 47.7008 40.0645 46.2903C41.871 45.2645 48.129 38.5966 48.6452 37.122C49.1613 35.6474 49.6129 31.2876 49.6129 31.2876C49.6129 31.2876 51.4194 32.1211 52.5807 30.2618C53.871 28.4666 55.8065 22.6322 54.7742 20.1318Z" fill="#E2988F"/>
<path d="M36.1936 47.5724C34.7097 47.5724 33.1613 47.1877 31.9355 46.4825C30.8387 45.8413 28.2581 43.3409 26.3871 41.2251L26.7742 40.9045C28.7097 43.0203 31.1613 45.4566 32.1936 46.0337C34.5161 47.3801 37.9355 47.3801 40 46.0337C41.0323 45.4566 43.4839 43.0203 45.4194 40.9045L45.8065 41.2251C43.9355 43.3409 41.3548 45.8413 40.2581 46.4825C39.1613 47.2518 37.6774 47.5724 36.1936 47.5724Z" fill="#C46966"/>
<path d="M22.4278 28.7053L21.9149 28.7625L22.2168 31.4385L22.7297 31.3814L22.4278 28.7053Z" fill="#C46966"/>
<path d="M49.7602 28.7078L49.4846 31.3223L49.9979 31.3757L50.2735 28.7612L49.7602 28.7078Z" fill="#C46966"/>
<path d="M18.8387 25.7096C18.7097 25.3249 17.871 22.1192 19.0323 21.2216C19.4194 20.9652 19.7419 20.9652 19.9355 21.0293C20.5161 21.2216 20.8387 21.991 20.8387 22.0551L20.3871 22.2474C20.3226 22.0551 20.0645 21.6063 19.7419 21.5422C19.6129 21.4781 19.4194 21.5422 19.2903 21.6704C18.5807 22.1833 18.9032 24.3632 19.2258 25.6455L18.8387 25.7096Z" fill="#C46966"/>
<path d="M53.3548 25.7096L52.9032 25.5814C53.2258 24.2991 53.5484 22.1193 52.8387 21.6063C52.6452 21.4781 52.5161 21.4781 52.3871 21.5422C52 21.6705 51.7419 22.2475 51.7419 22.2475L51.2903 22.0551C51.3548 21.991 51.6129 21.2217 52.1936 21.0293C52.3871 20.9652 52.7097 20.9652 53.0968 21.1575C54.3226 22.1192 53.4839 25.3891 53.3548 25.7096Z" fill="#C46966"/>
<path d="M22.1936 24.8121C25.4194 24.8121 22.9678 14.4898 25.5484 11.9252C26.8387 10.6429 45.4839 10.707 46.7097 11.9252C49.2258 14.4256 46.7742 24.8121 50.0645 24.8121C49.871 22.4399 49.8065 19.8112 51.6129 18.8495C52.7742 7.50134 46.9678 0 36.129 0C25.2258 0 19.4194 7.50134 20.6452 18.8495C22.0645 19.7471 22.3871 22.3117 22.1936 24.8121Z" fill="#4C224B"/>
<path d="M36.129 28.2744C36.129 28.2744 28.4516 28.082 28.129 33.2112H36.129H44.129C43.7419 28.082 36.129 28.2744 36.129 28.2744Z" fill="#4C224B"/>
</svg>
