<svg width="26" height="26" viewBox="0 0 26 26" fill="none" xmlns="http://www.w3.org/2000/svg">
<path d="M12.9965 8.66482C10.6094 8.66482 8.66141 10.6129 8.66141 13C8.66141 15.3871 10.6094 17.3352 12.9965 17.3352C15.3836 17.3352 17.3316 15.3871 17.3316 13C17.3316 10.6129 15.3836 8.66482 12.9965 8.66482ZM25.9985 13C25.9985 11.2048 26.0148 9.42584 25.914 7.63387C25.8132 5.55247 25.3384 3.70522 23.8164 2.18319C22.2911 0.657911 20.4472 0.186343 18.3658 0.0855244C16.5706 -0.0152937 14.7917 0.000967347 12.9998 0.000967347C11.2046 0.000967347 9.42566 -0.0152937 7.63373 0.0855244C5.55236 0.186343 3.70515 0.661163 2.18315 2.18319C0.657899 3.70847 0.186339 5.55247 0.0855228 7.63387C-0.0152934 9.42909 0.000967329 11.208 0.000967329 13C0.000967329 14.792 -0.0152934 16.5742 0.0855228 18.3661C0.186339 20.4475 0.661151 22.2948 2.18315 23.8168C3.7084 25.3421 5.55236 25.8137 7.63373 25.9145C9.42891 26.0153 11.2078 25.999 12.9998 25.999C14.7949 25.999 16.5739 26.0153 18.3658 25.9145C20.4472 25.8137 22.2944 25.3388 23.8164 23.8168C25.3416 22.2915 25.8132 20.4475 25.914 18.3661C26.0181 16.5742 25.9985 14.7952 25.9985 13ZM12.9965 19.6703C9.30533 19.6703 6.32637 16.6912 6.32637 13C6.32637 9.30876 9.30533 6.32974 12.9965 6.32974C16.6877 6.32974 19.6666 9.30876 19.6666 13C19.6666 16.6912 16.6877 19.6703 12.9965 19.6703ZM19.9398 7.61436C19.078 7.61436 18.382 6.91839 18.382 6.05656C18.382 5.19473 19.078 4.49876 19.9398 4.49876C20.8016 4.49876 21.4976 5.19473 21.4976 6.05656C21.4978 6.2612 21.4577 6.46389 21.3795 6.65301C21.3013 6.84212 21.1866 7.01396 21.0419 7.15866C20.8972 7.30337 20.7254 7.41811 20.5363 7.4963C20.3471 7.5745 20.1445 7.61462 19.9398 7.61436Z" fill="#434041"/>
</svg>
