<svg width="26" height="26" viewBox="0 0 26 26" fill="none" xmlns="http://www.w3.org/2000/svg">
<path d="M22.1532 22.1536H18.3009V16.1205C18.3009 14.6818 18.2752 12.8298 16.2972 12.8298C14.2908 12.8298 13.9837 14.3974 13.9837 16.0158V22.1532H10.1315V9.74671H13.8297V11.4422H13.8815C14.2516 10.8094 14.7864 10.2888 15.429 9.93583C16.0715 9.58291 16.7978 9.41088 17.5304 9.43806C21.435 9.43806 22.1548 12.0064 22.1548 15.3476L22.1532 22.1536ZM5.78459 8.05092C4.5499 8.05112 3.5488 7.05033 3.54859 5.81563C3.54839 4.58094 4.54909 3.57984 5.78378 3.57963C7.01848 3.57933 8.01958 4.58012 8.01978 5.81482C8.01989 6.40775 7.78446 6.97643 7.36528 7.39578C6.94611 7.81512 6.37752 8.05079 5.78459 8.05092ZM7.71083 22.1537H3.8544V9.74671H7.71073V22.1536L7.71083 22.1537ZM24.0738 0.0018923H1.91862C0.871508 -0.00988894 0.0127969 0.828915 0 1.87602V24.1236C0.0123906 25.1712 0.871 26.0108 1.91852 25.9999H24.0738C25.1235 26.0129 25.9855 25.1732 26 24.1236V1.8743C25.9851 0.825158 25.123 -0.0135452 24.0738 0.000165739" fill="#434041"/>
</svg>
