<svg width="189" height="186" viewBox="0 0 189 186" fill="none" xmlns="http://www.w3.org/2000/svg">
<path d="M89.6886 49.2514L14.9756 67.8038C10.0218 69.0339 5.76071 72.186 3.12965 76.5666C0.498596 80.9473 -0.286877 86.1977 0.946029 91.1628L10.2434 128.605C11.4763 133.57 14.6266 137.843 19.0012 140.484C23.3759 143.125 28.6165 143.918 33.5703 142.687L42.9094 140.368L52.2068 177.81C52.8232 180.293 54.3984 182.429 56.5857 183.75C58.773 185.07 61.3934 185.467 63.8703 184.852L82.5485 180.214C85.0254 179.599 87.156 178.023 88.4715 175.832C89.787 173.642 90.1798 171.017 89.5633 168.534L80.266 131.092L108.283 124.135L164.276 149.982L127.087 0.214392L89.6886 49.2514ZM187.708 64.6624C191.682 80.6688 186.319 97.4038 173.657 107.902L155.063 33.0182C171.095 36.4904 183.756 48.7496 187.708 64.6624Z" fill="#00398E"/>
</svg>
