<svg width="148" height="174" viewBox="0 0 148 174" fill="none" xmlns="http://www.w3.org/2000/svg">
<path d="M47.1848 107.472L47.9799 105.805C51.7126 98.0904 55.3748 92.2832 58.9664 88.3833C62.6008 84.5038 66.4053 81.8072 70.38 80.2934C74.3751 78.7369 78.835 77.6906 83.7596 77.1546C87.1411 76.7743 90.3162 76.1119 93.2849 75.1674C96.3167 74.2005 99.0017 72.8059 101.34 70.9836C103.699 69.1186 105.591 66.6903 107.018 63.6989C108.629 60.3228 109.235 57.0184 108.836 53.7854C108.437 50.5525 107.218 47.6101 105.178 44.9582C103.181 42.3267 100.537 40.2261 97.2465 38.6563C94.2123 37.2089 91.0117 36.4952 87.6447 36.5152C84.3408 36.5129 81.1595 37.4084 78.1006 39.2017C75.1049 40.9726 72.542 43.8157 70.412 47.7308L47.5916 36.8443C51.6788 28.8267 56.8861 22.9696 63.2135 19.2732C69.5837 15.5972 76.498 13.8595 83.9566 14.0602C91.4579 14.2812 98.9478 16.1756 106.426 19.7432C114.589 23.6371 121.085 28.4937 125.916 34.313C130.789 40.1527 133.693 46.5477 134.626 53.4982C135.623 60.4263 134.399 67.5014 130.953 74.7236C128.629 79.5953 125.759 83.5771 122.343 86.669C118.97 89.7812 115.138 92.15 110.848 93.7756C106.558 95.4011 101.886 96.4513 96.8331 96.9261C92.3522 97.4115 88.4502 98.278 85.1272 99.5256C81.8468 100.794 78.9283 102.732 76.3717 105.342C73.8782 107.93 71.5296 111.479 69.3259 115.988L68.5308 117.655L47.1848 107.472ZM39.2566 152.792C35.4105 150.958 32.7509 148.01 31.2779 143.95C29.8049 139.89 30.0062 135.894 31.8818 131.962C33.7166 128.116 36.6752 125.488 40.7577 124.078C44.8403 122.668 48.8046 122.881 52.6507 124.716C56.4541 126.53 59.0923 129.467 60.5653 133.527C62.0811 137.608 61.9215 141.571 60.0867 145.417C58.8431 148.024 57.0493 150.08 54.7052 151.585C52.4038 153.11 49.8789 154.004 47.1306 154.267C44.4454 154.507 41.8207 154.016 39.2566 152.792Z" fill="#222222" fill-opacity="0.2"/>
</svg>
