<svg width="32" height="26" viewBox="0 0 32 26" fill="none" xmlns="http://www.w3.org/2000/svg">
<path d="M32 3.08407C30.8232 3.60524 29.5591 3.95738 28.2301 4.11655C29.6013 3.29648 30.6272 2.00577 31.1164 0.485276C29.828 1.25011 28.418 1.78847 26.9476 2.07695C25.9588 1.02175 24.6491 0.322342 23.2218 0.0873202C21.7945 -0.147702 20.3296 0.0948102 19.0543 0.777205C17.7791 1.4596 16.7649 2.5437 16.1693 3.86118C15.5737 5.17867 15.43 6.65584 15.7604 8.06335C13.1499 7.93234 10.5961 7.2542 8.26485 6.07291C5.93354 4.89163 3.87681 3.23361 2.22813 1.20646C1.66441 2.17837 1.34026 3.30522 1.34026 4.50532C1.33963 5.58568 1.60582 6.64949 2.11522 7.60237C2.62461 8.55525 3.36145 9.36773 4.26037 9.96772C3.21786 9.93457 2.19836 9.65303 1.28671 9.14653V9.23104C1.2866 10.7463 1.81102 12.2149 2.77098 13.3877C3.73094 14.5605 5.06731 15.3652 6.55333 15.6654C5.58624 15.927 4.57231 15.9655 3.58813 15.778C4.0074 17.0818 4.82409 18.2219 5.92389 19.0388C7.02368 19.8556 8.35151 20.3082 9.72148 20.3333C7.39587 22.158 4.52376 23.1478 1.56716 23.1434C1.04343 23.1436 0.520146 23.113 0 23.0519C3.00111 24.9804 6.49462 26.004 10.0625 26C22.1404 26 28.7431 16.002 28.7431 7.33089C28.7431 7.04918 28.736 6.76465 28.7233 6.48294C30.0076 5.55466 31.1162 4.40516 31.9972 3.0883L32 3.08407Z" fill="#434041"/>
</svg>
