<svg width="36" height="42" viewBox="0 0 36 42" fill="none" xmlns="http://www.w3.org/2000/svg">
<path d="M35.0374 33.4241V35.3559H0.961914V33.4241L4.74808 29.5607V17.9704C4.74808 11.9821 8.59103 6.7085 14.2135 5.00859C14.2135 4.81542 14.2135 4.64156 14.2135 4.44839C14.2135 3.42375 14.6124 2.44107 15.3224 1.71653C16.0325 0.992 16.9955 0.584961 17.9996 0.584961C19.0038 0.584961 19.9668 0.992 20.6769 1.71653C21.3869 2.44107 21.7858 3.42375 21.7858 4.44839C21.7858 4.64156 21.7858 4.81542 21.7858 5.00859C27.4083 6.7085 31.2512 11.9821 31.2512 17.9704V29.5607L35.0374 33.4241ZM21.7858 37.2876C21.7858 38.3122 21.3869 39.2949 20.6769 40.0194C19.9668 40.744 19.0038 41.151 17.9996 41.151C16.9955 41.151 16.0325 40.744 15.3224 40.0194C14.6124 39.2949 14.2135 38.3122 14.2135 37.2876" fill="#434041"/>
<circle cx="26.9246" cy="8.69812" r="4.86792" fill="#FA0611"/>
</svg>
