<svg width="33" height="30" viewBox="0 0 33 30" fill="none" xmlns="http://www.w3.org/2000/svg">
<path d="M16.3043 0C25.2717 0 32.6087 5.96667 32.6087 13.3333C32.6087 20.7 25.2717 26.6667 16.3043 26.6667C14.2826 26.6667 12.3424 26.3667 10.5489 25.8333C5.78804 30 0 30 0 30C3.79891 26.1167 4.40217 23.5 4.4837 22.5C1.71196 20.1167 0 16.8833 0 13.3333C0 5.96667 7.33696 0 16.3043 0ZM24.4565 15V11.6667H21.1957V15H24.4565ZM17.9348 15V11.6667H14.6739V15H17.9348ZM11.413 15V11.6667H8.15217V15H11.413Z" fill="#222222" fill-opacity="0.5"/>
</svg>
