<svg width="30" height="30" viewBox="0 0 30 30" fill="none" xmlns="http://www.w3.org/2000/svg">
<path d="M24 24C22.335 24 21 25.335 21 27C21 27.7956 21.3161 28.5587 21.8787 29.1213C22.4413 29.6839 23.2044 30 24 30C24.7956 30 25.5587 29.6839 26.1213 29.1213C26.6839 28.5587 27 27.7956 27 27C27 25.335 25.65 24 24 24ZM0 0V3H3L8.4 14.385L6.36 18.06C6.135 18.48 6 18.975 6 19.5C6 20.2956 6.31607 21.0587 6.87868 21.6213C7.44129 22.1839 8.20435 22.5 9 22.5H27V19.5H9.63C9.53054 19.5 9.43516 19.4605 9.36483 19.3902C9.29451 19.3198 9.255 19.2245 9.255 19.125C9.255 19.05 9.27 18.99 9.3 18.945L10.65 16.5H21.825C22.95 16.5 23.94 15.87 24.45 14.955L29.82 5.25C29.925 5.01 30 4.755 30 4.5C30 4.10218 29.842 3.72064 29.5607 3.43934C29.2794 3.15804 28.8978 3 28.5 3H6.315L4.905 0M9 24C7.335 24 6 25.335 6 27C6 27.7956 6.31607 28.5587 6.87868 29.1213C7.44129 29.6839 8.20435 30 9 30C9.79565 30 10.5587 29.6839 11.1213 29.1213C11.6839 28.5587 12 27.7956 12 27C12 25.335 10.65 24 9 24Z" fill="#222222" fill-opacity="0.5"/>
</svg>
