<svg width="30" height="30" viewBox="0 0 30 30" fill="none" xmlns="http://www.w3.org/2000/svg">
<path d="M14.594 20.25C13.2016 20.25 11.8663 19.6969 10.8817 18.7123C9.89712 17.7277 9.344 16.3924 9.344 15C9.344 13.6076 9.89712 12.2723 10.8817 11.2877C11.8663 10.3031 13.2016 9.75 14.594 9.75C15.9864 9.75 17.3217 10.3031 18.3063 11.2877C19.2909 12.2723 19.844 13.6076 19.844 15C19.844 16.3924 19.2909 17.7277 18.3063 18.7123C17.3217 19.6969 15.9864 20.25 14.594 20.25ZM25.739 16.455C25.799 15.975 25.844 15.495 25.844 15C25.844 14.505 25.799 14.01 25.739 13.5L28.904 11.055C29.189 10.83 29.264 10.425 29.084 10.095L26.084 4.905C25.904 4.575 25.499 4.44 25.169 4.575L21.434 6.075C20.654 5.49 19.844 4.98 18.899 4.605L18.344 0.63C18.284 0.27 17.969 0 17.594 0H11.594C11.219 0 10.904 0.27 10.844 0.63L10.289 4.605C9.344 4.98 8.534 5.49 7.754 6.075L4.019 4.575C3.689 4.44 3.284 4.575 3.104 4.905L0.103997 10.095C-0.0910026 10.425 -0.00100245 10.83 0.283998 11.055L3.449 13.5C3.389 14.01 3.344 14.505 3.344 15C3.344 15.495 3.389 15.975 3.449 16.455L0.283998 18.945C-0.00100245 19.17 -0.0910026 19.575 0.103997 19.905L3.104 25.095C3.284 25.425 3.689 25.545 4.019 25.425L7.754 23.91C8.534 24.51 9.344 25.02 10.289 25.395L10.844 29.37C10.904 29.73 11.219 30 11.594 30H17.594C17.969 30 18.284 29.73 18.344 29.37L18.899 25.395C19.844 25.005 20.654 24.51 21.434 23.91L25.169 25.425C25.499 25.545 25.904 25.425 26.084 25.095L29.084 19.905C29.264 19.575 29.189 19.17 28.904 18.945L25.739 16.455Z" fill="#222222" fill-opacity="0.5"/>
</svg>
