<svg width="134" height="76" viewBox="0 0 134 76" fill="none" xmlns="http://www.w3.org/2000/svg">
<path d="M67.0384 23.2866C78.3279 31.7078 84.7265 44.2844 85.6458 57.3391C91.0148 39.9451 85.2413 20.308 69.7964 8.79783C50.2328 -5.83808 22.5055 -1.79298 7.86956 17.8074C3.86123 23.2131 1.2503 29.244 0 35.422C0.588378 34.5394 1.17676 33.6568 1.80191 32.811C17.1733 12.1442 46.4083 7.91526 67.0384 23.2866Z" fill="#00398E"/>
<path d="M66.8546 52.3014C55.5651 43.8803 49.1664 31.3037 48.2471 18.249C42.8782 35.643 48.6516 55.2801 64.0966 66.7902C83.6969 81.3894 111.424 77.3443 126.023 57.7439C130.032 52.3382 132.643 46.3441 133.893 40.1661C133.305 41.0487 132.716 41.9313 132.091 42.777C116.72 63.4438 87.4846 67.7096 66.8546 52.3014Z" fill="#00398E"/>
</svg>
